# xmcd
#
# Track frame offsets: 
#        150
#        17231
#        34554
#        62644
#        89072
#        106211
#
# Disc length: 1752 seconds
#
# Revision: 2
# Processed by: cddbd v1.5.2PL0 Copyright (c) Steve Scherf et al.
# Submitted via: ExactAudioCopyFreeDBPlugin 1.0
#
DISCID=4606d606
DTITLE=Harajuku - Colors Of The Wind
DYEAR=1900
DGENRE=Rock
TTITLE0=Colors Of The Wind(Pocas Edit)
TTITLE1=Colors Of The Wind(Radio Version)
TTITLE2=Colors Of The Wind(Poca's Mix)
TTITLE3=Colors Of The Wind(Club Mix)
TTITLE4=Colors Of The Wind(Pop Mix)
TTITLE5=Voices Of The Mountains(Instrumental)
EXTD=
EXTT0=
EXTT1=
EXTT2=
EXTT3=
EXTT4=
EXTT5=
PLAYORDER=
